<svg xmlns="http://www.w3.org/2000/svg" viewBox="0 0 96 96" role="img" aria-label="JS Bank">
  <rect width="96" height="96" rx="24" fill="#F8FAFC"/>
  <rect x="20" y="22" width="56" height="52" rx="18" fill="#FFFFFF" stroke="#334155" stroke-width="4"/>
  <path d="M38 31v24c0 9-5 14-14 14l-1-8c5 0 7-2 7-7V31h8Zm9 28c3 2 7 3 11 3 4 0 6-1 6-4 0-2-2-3-7-4-8-2-12-5-12-12 0-8 6-12 15-12 5 0 9 1 12 3l-2 8c-3-2-6-3-10-3s-6 1-6 4c0 2 2 3 7 4 8 2 12 5 12 12 0 8-6 12-16 12-5 0-10-1-13-4l3-7Z" fill="#334155"/>
</svg>
